Coordinates
version=1
nRows=21
nColumns=34
inDegrees=no

Units are S.I. units (second, meters, Newtons, ...)
If the header above contains a line with 'inDegrees', this indicates whether rotational values are in degrees (yes) or radians (no).

endheader
time	pelvis_tilt	pelvis_list	pelvis_rotation	pelvis_tx	pelvis_ty	pelvis_tz	hip_flexion_r	hip_adduction_r	hip_rotation_r	knee_angle_r	ankle_angle_r	subtalar_angle_r	mtp_angle_r	hip_flexion_l	hip_adduction_l	hip_rotation_l	knee_angle_l	ankle_angle_l	subtalar_angle_l	mtp_angle_l	lumbar_extension	lumbar_bending	lumbar_rotation	arm_flex_r	arm_add_r	arm_rot_r	elbow_flex_r	pro_sup_r	arm_flex_l	arm_add_l	arm_rot_l	elbow_flex_l	pro_sup_l
0.47	-0.0326368	-0.157739	0.0249188	0.469217	0.960117	-0.205056	-0.111621	0.176539	-0.188617	0.128423	0.302124	0.243272	-0.0183301	0.584175	-0.212121	-0.0782737	0.434067	0.0901305	0.0464517	-0.0118207	-0.0815747	0.053103	0.184773	0.259726	-0.230247	0.148581	0.85115	1.66029	0.00966349	-0.240566	0.115557	0.420614	1.85451
0.48	-0.0340378	-0.153331	0.0232043	0.480638	0.958668	-0.204773	-0.124409	0.170087	-0.201187	0.128468	0.312057	0.266456	-0.0183828	0.574737	-0.208429	-0.0912594	0.365964	0.099121	0.08885	-0.0117961	-0.0799906	0.0412145	0.192093	0.265522	-0.23185	0.155189	0.861384	1.65539	0.00694092	-0.244003	0.109459	0.417325	1.84
0.49	-0.0350851	-0.148726	0.0206796	0.492213	0.957181	-0.204526	-0.137103	0.162969	-0.212745	0.12971	0.321377	0.288578	-0.0184355	0.56425	-0.204824	-0.103343	0.30307	0.108274	0.129407	-0.0117715	-0.0786452	0.0289653	0.199634	0.270916	-0.233601	0.161747	0.870718	1.64966	0.00449252	-0.247269	0.103217	0.414344	1.82434
0.5	-0.0358354	-0.143851	0.0172552	0.503955	0.95568	-0.204302	-0.14965	0.155141	-0.222688	0.132097	0.329797	0.308844	-0.0184882	0.553393	-0.201434	-0.114378	0.247639	0.117225	0.165982	-0.0117469	-0.0774128	0.0162407	0.207428	0.275815	-0.235391	0.168194	0.87912	1.64349	0.00225922	-0.250424	0.0968884	0.411598	1.80823
0.51	-0.0363533	-0.138612	0.0129306	0.515867	0.954189	-0.20409	-0.161969	0.146563	-0.230477	0.13558	0.337056	0.326437	-0.0185409	0.542857	-0.198335	-0.124333	0.201715	0.125609	0.196713	-0.0117222	-0.0761594	0.00289706	0.215435	0.28013	-0.237084	0.174454	0.886561	1.63733	0.000204113	-0.253556	0.0905541	0.408998	1.79242
0.52	-0.0366887	-0.132886	0.00780488	0.527952	0.952727	-0.203885	-0.173974	0.13718	-0.235678	0.140121	0.342935	0.340568	-0.0185936	0.533226	-0.195502	-0.133298	0.166832	0.133034	0.220228	-0.0116975	-0.0747717	-0.0112466	0.223539	0.283775	-0.238523	0.180435	0.893022	1.63154	-0.00168525	-0.256772	0.0843025	0.406455	1.77767
0.53	-0.0368588	-0.126512	0.00206904	0.540208	0.951311	-0.203693	-0.185593	0.126918	-0.237991	0.14571	0.347248	0.350514	-0.0186462	0.524863	-0.192767	-0.14145	0.143742	0.139031	0.235762	-0.0116728	-0.0731825	-0.026408	0.231554	0.28667	-0.239541	0.186029	0.898497	1.62642	-0.00339789	-0.260186	0.0782093	0.403902	1.76463
0.54	-0.0368398	-0.119296	-0.00401964	0.552636	0.949951	-0.203523	-0.19677	0.115683	-0.23726	0.152392	0.349829	0.355664	-0.0186988	0.517826	-0.189808	-0.148987	0.132236	0.143025	0.243179	-0.0116481	-0.0713915	-0.042829	0.239246	0.288745	-0.239974	0.191117	0.902995	1.62215	-0.00490253	-0.263906	0.0723255	0.401303	1.75377
0.55	-0.0365959	-0.111038	-0.0101718	0.565233	0.948653	-0.203396	-0.207458	0.103375	-0.233471	0.160297	0.350496	0.355545	-0.0187514	0.511844	-0.186175	-0.156057	0.13112	0.144347	0.24291	-0.0116234	-0.0694799	-0.0607496	0.246364	0.289945	-0.239679	0.195581	0.906545	1.61883	-0.00615227	-0.268019	0.0666721	0.398655	1.74534
0.56	-0.0359945	-0.101571	-0.0161222	0.578009	0.947457	-0.203334	-0.217572	0.0899144	-0.226729	0.169664	0.349013	0.349837	-0.018804	0.506396	-0.181351	-0.162706	0.138368	0.14231	0.23584	-0.0115986	-0.0675651	-0.0803755	0.252669	0.290237	-0.238553	0.199323	0.909198	1.61641	-0.0070887	-0.272581	0.0612417	0.395984	1.73936
0.57	-0.0349364	-0.090794	-0.0216486	0.590957	0.946384	-0.203357	-0.226966	0.0752821	-0.217239	0.180873	0.34506	0.338373	-0.0188565	0.500817	-0.174858	-0.168869	0.151455	0.136356	0.22317	-0.0115739	-0.0658203	-0.101825	0.257965	0.289618	-0.236546	0.202283	0.911031	1.6148	-0.00764752	-0.277605	0.0560049	0.39334	1.73564
0.58	-0.0333506	-0.0787107	-0.0265994	0.60406	0.945446	-0.203479	-0.235389	0.0595577	-0.205277	0.19445	0.338225	0.321132	-0.018909	0.49448	-0.166358	-0.174392	0.167782	0.126224	0.206273	-0.0115491	-0.0644277	-0.125088	0.262107	0.288119	-0.233676	0.204466	0.912151	1.61383	-0.00776339	-0.283061	0.0509176	0.390784	1.73381
0.59	-0.031228	-0.0654626	-0.0308985	0.617293	0.944652	-0.203706	-0.242446	0.0429497	-0.191172	0.211064	0.328021	0.298211	-0.0189615	0.486967	-0.15574	-0.179078	0.185111	0.112094	0.186545	-0.0115243	-0.0635421	-0.14999	0.265004	0.285813	-0.230033	0.205948	0.912691	1.61328	-0.00737461	-0.288876	0.0459292	0.388383	1.7334
0.6	-0.0286465	-0.0513316	-0.0345338	0.630611	0.943998	-0.204034	-0.247587	0.0258005	-0.175297	0.231491	0.313946	0.269812	-0.0190139	0.478203	-0.143173	-0.182714	0.201898	0.0946664	0.165256	-0.0114995	-0.063259	-0.176183	0.266608	0.282808	-0.225779	0.206884	0.912816	1.61293	-0.00642522	-0.294943	0.040994	0.386199	1.73386
0.61	-0.02578	-0.036713	-0.0375329	0.643963	0.94347	-0.204455	-0.250128	0.00855628	-0.158084	0.256555	0.295566	0.236228	-0.0190663	0.468505	-0.129078	-0.185097	0.217458	0.0751244	0.143414	-0.0114747	-0.0635979	-0.203175	0.266893	0.279245	-0.221134	0.207492	0.912711	1.6126	-0.00486301	-0.301129	0.036087	0.384282	1.73468
0.62	-0.0228868	-0.0220604	-0.0399342	0.657282	0.943039	-0.204961	-0.249307	-0.00829683	-0.140044	0.287051	0.272625	0.197841	-0.0191187	0.458541	-0.114062	-0.186056	0.231936	0.0550042	0.121695	-0.0114499	-0.0645027	-0.230384	0.265834	0.275289	-0.21636	0.208031	0.912569	1.61212	-0.00263321	-0.307298	0.0312247	0.382664	1.73537
0.63	-0.0202754	-0.0078111	-0.0417604	0.6705	0.94267	-0.205544	-0.244375	-0.0243189	-0.121781	0.323638	0.245151	0.155124	-0.019171	0.449203	-0.0987925	-0.185468	0.246106	0.0359873	0.100438	-0.0114252	-0.0658648	-0.257225	0.263393	0.271117	-0.211731	0.208768	0.912579	1.61138	0.000330548	-0.313325	0.0264881	0.381351	1.73559
0.64	-0.018252	0.00568683	-0.0430054	0.683549	0.942322	-0.206203	-0.234714	-0.0392008	-0.103996	0.366733	0.213531	0.108635	-0.0192234	0.44142	-0.0838722	-0.183291	0.26106	0.0196671	0.0797315	-0.0114004	-0.0675617	-0.283193	0.259513	0.266905	-0.207501	0.209947	0.912901	1.61033	0.00411498	-0.319117	0.022039	0.380315	1.73507
0.65	-0.0170567	0.0182274	-0.0436354	0.696372	0.941958	-0.206939	-0.219956	-0.052823	-0.0874336	0.416405	0.178559	0.0590102	-0.0192757	0.435956	-0.0697394	-0.179592	0.277864	0.0073383	0.0595345	-0.0113756	-0.069506	-0.307932	0.254134	0.262815	-0.203881	0.211751	0.913649	1.60893	0.00883164	-0.32462	0.0181237	0.379491	1.73371
0.66	-0.0168018	0.0297628	-0.0436075	0.708926	0.941555	-0.207755	-0.200089	-0.0652684	-0.072809	0.472299	0.141408	0.00694612	-0.0193279	0.433224	-0.0566168	-0.174564	0.297264	-0.000146185	0.0398246	-0.0113508	-0.0716916	-0.331257	0.247211	0.25898	-0.20102	0.214289	0.914877	1.60718	0.0146145	-0.329818	0.0150581	0.378779	1.7315
0.67	-0.0174264	0.0403784	-0.0428973	0.721187	0.941106	-0.208654	-0.175505	-0.0767821	-0.0607015	0.533606	0.103557	-0.0467948	-0.0193801	0.433174	-0.0445227	-0.168528	0.319501	-0.00242973	0.0207088	-0.011326	-0.074224	-0.353145	0.238748	0.2555	-0.198991	0.217585	0.916558	1.60508	0.0216096	-0.334725	0.0131917	0.378055	1.72856
